<svg width="120" height="120" viewBox="0 0 120 120" fill="none" xmlns="http://www.w3.org/2000/svg">
<path d="M23.3428 56.2958L47.5099 55.1071L49.7144 99.9262L29.5424 100.918C27.336 101.027 25.4593 99.3262 25.3507 97.1197L23.3428 56.2958Z" fill="#CA2F42"/>
<path d="M66.8438 54.1562L91.0109 52.9675L93.0189 93.7914C93.1274 95.9979 91.4267 97.8746 89.2202 97.9831L69.0482 98.9753L66.8438 54.1562Z" fill="#CA2F42"/>
<rect x="47.5096" y="55.1017" width="19.3571" height="44.8787" transform="rotate(-2.81589 47.5096 55.1017)" fill="#FF505D"/>
<path d="M61.3268 22.1454C61.7663 21.6041 62.1712 21.0324 62.5364 20.4262C65.501 15.5113 64.4179 9.26903 60.1228 6.51211C55.8277 3.75519 49.922 5.50956 46.9587 10.4239C43.9403 15.429 44.1613 21.8005 44.506 29.2732L61.3268 22.1454Z" fill="#FF6570"/>
<path d="M25.7936 37.2059C25.0989 37.1452 24.4065 37.0386 23.7169 36.8795C18.1234 35.5919 14.391 30.4724 15.3969 25.4688C16.4027 20.4651 21.7704 17.4414 27.3626 18.7295C33.0583 20.0413 37.4831 24.631 42.6132 30.0754L25.7936 37.2059Z" fill="#FF6570"/>
<rect x="6.02441" y="41.5357" width="76.945" height="22.4367" rx="2" transform="rotate(-22.9692 6.02441 41.5357)" fill="#EC4650"/>
<rect x="33.4163" y="29.7106" width="19.3571" height="22.4032" transform="rotate(-22.9692 33.4163 29.7106)" fill="#FF505D"/>
</svg>