<svg width="262" height="343" viewBox="0 0 262 343" fill="none" xmlns="http://www.w3.org/2000/svg">
<path d="M34.3372 293.182L43.9141 276.002L56.9013 277.293L44.1751 296.467L34.3372 293.182Z" fill="#8A5D42"/>
<path d="M9.8248 295.69C11.8895 295.637 26.3272 290.337 33.8207 287.715C34.0624 287.63 34.323 287.744 34.4514 287.965C35.2198 289.292 37.2218 291.768 39.9559 292.751C42.9951 293.845 46.4606 293.288 47.8135 292.873C48.0407 292.786 48.7746 293.1 49.8916 295.058C51.0087 297.015 50.0113 303.751 49.3729 306.874L0.344233 302.001C0.290008 300.347 0.532209 296.811 1.93482 295.895C3.68807 294.751 7.19481 295.759 9.8248 295.69Z" fill="white"/>
<path d="M245.725 280.693L227.044 274.814L225.649 261.769L246.915 270.336L245.725 280.693Z" fill="#8A5D42"/>
<path d="M253.173 304.294C252.699 302.273 244.587 289.156 240.506 282.325C240.375 282.107 240.433 281.831 240.621 281.66C241.755 280.631 243.759 278.15 244.159 275.255C244.603 272.039 243.353 268.744 242.673 267.499C242.541 267.293 242.698 266.506 244.375 265.004C246.052 263.501 252.814 263.093 255.985 263.077L261.252 312.32C259.653 312.715 256.161 313.206 254.983 312.014C253.511 310.526 253.776 306.867 253.173 304.294Z" fill="white"/>
<path d="M171.707 37.3866C174.758 31.6537 177.964 29.1215 180.54 26.6656L186.402 26.3118L198.69 40.3594L193.303 59.4173L190.077 76.3729L173.348 75.4105L181.085 62.7837L165.076 57.5054L166.783 47.8717C167.763 46.0598 169.359 41.8007 171.707 37.3866Z" fill="#8A5D42"/>
<path d="M75.8226 143.326C76.4633 143.22 87.554 142.407 90.5714 142.419L86.6364 131.451L77.7663 133.797C77.1078 133.54 74.1719 132.682 67.6964 131.298C59.6021 129.569 59.3143 131.59 59.4881 132.657C59.6619 133.725 63.7174 135.903 64.0914 136.938C64.4653 137.972 63.2377 139.271 59.1808 142.135C55.1239 144.999 53.1997 147.072 54.0436 148.467C54.8875 149.862 67.5088 146.472 69.0588 145.981C71.796 145.114 75.0218 143.459 75.8226 143.326Z" fill="#8A5D42"/>
<path d="M127.932 109.392C137.933 103.793 163.917 79.4528 175.659 67.9827C174.415 72.804 171.134 84.4778 167.966 92.6023C164.797 100.727 141.43 125.349 130.142 136.644L87.9978 144.982L84.9122 129.841C95.0856 125.358 117.932 114.991 127.932 109.392Z" fill="#292A5C"/>
<path d="M121.146 147.958L126.666 148.506L150.913 191.565C135.722 206.95 97.3161 234.463 91.4492 240.705C85.5824 246.947 66.9173 272.375 55.0404 281.901L35.7034 275.211C44.1766 259.242 57.2648 222.225 64.9434 210.47C80.0267 187.379 107.778 163.691 121.146 147.958Z" fill="#CA2F42"/>
<path d="M138.417 246.054C134.91 235.372 130.325 181.688 125.377 148.999L176.582 168.264L177.619 231.269L234.613 263.305L228.996 276.922C227.838 277.576 211.047 276.603 189.227 274.434C161.953 271.723 154.4 265.963 148.867 262.249C144.257 259.153 141.289 254.806 138.417 246.054Z" fill="url(#paint0_linear)"/>
<path d="M179.426 69.6756C182.576 70.9776 185.314 70.9201 186.504 71.0385L147.287 158.788C139.235 155.13 123.013 147.672 122.545 147.098C121.961 146.38 122.091 145.074 122.577 143.474C123.064 141.875 147.422 115.739 152.317 108.189C157.481 100.224 170.354 78.5671 174.547 68.3735C174.824 67.7013 175.699 67.5155 176.284 67.947C176.988 68.4667 178 69.086 179.426 69.6756Z" fill="white"/>
<path d="M211.916 214.672C212.435 212.086 211.547 206.284 211.038 203.706L222.889 203.235C222.781 205.422 222.656 210.201 223.019 211.82C223.474 213.843 233.118 225.68 235.228 227.538C237.339 229.396 238.183 230.799 236.332 232.923C234.482 235.046 229.488 234.36 226.819 232.966C223.702 231.338 218.215 223.869 214.286 223.808C211.012 223.758 209.741 226.653 208.053 227.145C206.364 227.636 204.773 227.149 204.481 226.79C204.189 226.431 211.266 217.904 211.916 214.672Z" fill="#8A5D42"/>
<path d="M131.477 189.193C136.62 179.683 169.763 105.308 185.692 69.3092L193.323 71.716C196.841 77.0106 204.149 88.1545 205.24 90.3728C206.604 93.1457 220.418 119.348 224.368 138.757C229.435 163.656 226.395 190.936 225.087 207.399L208.852 205.785C208.299 194.851 208.524 172.797 205.732 161.3C203.51 152.149 199.486 140.569 197.094 136.046C197.062 142.966 196.829 162.459 196.155 185.073C195.991 190.569 196.705 191.234 194.226 208.127L143.156 197.119C130.363 194.361 128.623 194.471 131.477 189.193Z" fill="#3C4488"/>
<path d="M181.201 21.3679C182.701 20.2257 190.942 21.3331 196.7 24.5455C200.42 26.6215 203.161 28.6969 205.78 34.1856C209.896 42.8106 203.955 52.6999 201.488 55.1493C199.021 57.5987 195.498 58.7972 193.83 58.2405C192.445 57.7783 192.01 54.2375 192.276 53.2355C192.543 52.2335 193.454 52.0189 194.392 51.3051C195.792 50.2389 195.398 46.3146 194.322 44.7363C193.329 43.2787 192.25 42.8895 191.618 43.2563C190.986 43.6231 186.207 55.5737 184.125 58.9858C182.042 62.3979 182.082 63.0528 178.154 62.9612C174.226 62.8695 165.821 59.9307 165.11 58.9876C164.399 58.0446 164.873 55.0582 165.505 54.6914C166.136 54.3247 167.426 54.9042 168.455 54.842C170.084 54.7438 169.679 53.4536 169.274 52.1634C168.882 50.9118 166.172 48.5665 166.418 47.237C166.665 45.9076 167.192 44.7303 168.169 44.6713C169.146 44.6124 174.89 53.1392 179.775 52.8444C182.381 52.6871 189.279 42.4115 189.812 40.4075C190.345 38.4034 188.853 33.2408 187.324 31.6842C184.886 29.2021 180.613 28.8027 179.882 27.5322C179.152 26.2617 179.326 22.7956 181.201 21.3679Z" fill="#191A45"/>
<defs>
<linearGradient id="paint0_linear" x1="313.778" y1="289.037" x2="113.591" y2="270.162" gradientUnits="userSpaceOnUse">
<stop stop-color="#FF5C7F"/>
<stop offset="1" stop-color="#FF4338"/>
</linearGradient>
</defs>
</svg>