<svg width="88" height="88" viewBox="0 0 88 88" fill="none" xmlns="http://www.w3.org/2000/svg">
<rect x="12.1887" y="18" width="55.6981" height="37.3864" rx="2" fill="#FFCCC9"/>
<mask id="path-2-inside-1" fill="white">
<path d="M19.0557 29.1555C19.0557 28.0509 19.9511 27.1555 21.0557 27.1555H70.4648C71.5693 27.1555 72.4648 28.0509 72.4648 29.1555V61.4899H19.0557V29.1555Z"/>
</mask>
<path d="M19.0557 29.1555C19.0557 28.0509 19.9511 27.1555 21.0557 27.1555H70.4648C71.5693 27.1555 72.4648 28.0509 72.4648 29.1555V61.4899H19.0557V29.1555Z" stroke="#5254AB" stroke-width="6" mask="url(#path-2-inside-1)"/>
<path d="M25.1594 54.3405V59.2292H47.1516V54.3405C47.1516 51.3911 44.8173 49.0881 41.8276 49.0881H30.5244C27.6167 49.0881 25.1594 51.4315 25.1594 54.3405Z" fill="url(#paint0_linear)"/>
<path d="M36.135 46.9064C39.5341 46.9064 42.278 44.1995 42.278 40.846C42.278 37.4926 39.5341 34.7856 36.135 34.7856C32.7358 34.7856 29.9919 37.4926 29.9919 40.846C30.0738 44.1995 32.7768 46.9064 36.135 46.9064Z" fill="url(#paint1_linear)"/>
<path d="M13.6887 60.7007H77.8316V61.1195C77.8316 64.7094 74.9214 67.6195 71.3316 67.6195H20.1887C16.5989 67.6195 13.6887 64.7094 13.6887 61.1195V60.7007Z" stroke="#5254AB" stroke-width="3"/>
<path d="M50.3381 23.0515C50.3381 21.9469 51.2336 21.0515 52.3381 21.0515H72.7537C73.8583 21.0515 74.7537 21.9469 74.7537 23.0515V34.3113C74.7537 35.4158 73.8583 36.3113 72.7537 36.3113H59.1924C59.0598 36.3113 58.9326 36.3639 58.8389 36.4577L56.2082 39.0884C56.0932 39.2034 55.8962 39.1403 55.8695 38.9799L55.4943 36.7291C55.4542 36.488 55.2456 36.3113 55.0012 36.3113H52.3381C51.2336 36.3113 50.3381 35.4158 50.3381 34.3113V23.0515Z" fill="#5254AB"/>
<line x1="45.6336" y1="54.3339" x2="53.0998" y2="44.8315" stroke="#5E69C2" stroke-width="1.5" stroke-linecap="round" stroke-linejoin="round"/>
<circle cx="56.1787" cy="28.6553" r="1.5" fill="white"/>
<circle cx="62.1787" cy="28.6553" r="1.5" fill="white"/>
<circle cx="68.1787" cy="28.6553" r="1.5" fill="white"/>
<defs>
<linearGradient id="paint0_linear" x1="3.0328" y1="29.0912" x2="64.0718" y2="59.2292" gradientUnits="userSpaceOnUse">
<stop stop-color="#4D4BA2"/>
<stop offset="1" stop-color="#6473CC"/>
</linearGradient>
<linearGradient id="paint1_linear" x1="3.0328" y1="29.0912" x2="64.0718" y2="59.2292" gradientUnits="userSpaceOnUse">
<stop stop-color="#4D4BA2"/>
<stop offset="1" stop-color="#6473CC"/>
</linearGradient>
</defs>
</svg>