<svg width="268" height="423" viewBox="0 0 268 423" fill="none" xmlns="http://www.w3.org/2000/svg">
<g filter="url(#filter0_i)">
<rect x="-1.76196" y="140.089" width="160.928" height="300.398" rx="16" transform="rotate(-19.4856 -1.76196 140.089)" fill="url(#paint0_linear)"/>
</g>
<rect x="1.42878" y="141.612" width="155.928" height="295.398" rx="13.5" transform="rotate(-19.4856 1.42878 141.612)" stroke="#F7F7FA" stroke-width="5"/>
<g filter="url(#filter1_d)">
<path d="M38.0027 127.582L113.902 100.868L115.472 105.329C116.573 108.454 114.93 111.88 111.805 112.98L47.2242 135.71C44.0985 136.811 40.6727 135.168 39.5726 132.043L38.0027 127.582Z" fill="#F7F7FA"/>
</g>
<path d="M160.781 347.048C158.227 318.892 146.769 276.133 141.359 258.272L125.536 254.032L105.218 324.018L132.7 406.062L162.748 395.636C162.34 390.839 163.335 375.204 160.781 347.048Z" fill="#292A5C"/>
<path d="M169.058 134.444L150.735 151.244L167.397 161.75L173.567 148.066C174.61 151.008 176.981 157.233 178.12 158.594C179.545 160.296 182.827 163.402 186.419 163.614C190.011 163.826 195.918 158.492 201.365 151.558C205.723 146.012 210.106 135.3 211.753 130.638C211.914 128.953 212.199 124.97 212.048 122.522C211.859 119.46 204.932 112.35 198.594 107.77C192.257 103.189 181.988 109.606 175.951 114.009C171.121 117.532 169.343 129.1 169.058 134.444Z" fill="#E0BBA5"/>
<path d="M233.709 266.887C232.888 267.002 219.033 270.145 215.349 271.266L216.149 257.356L227.85 256.769C228.561 256.236 231.836 254.183 239.246 250.236C248.509 245.302 249.599 247.493 249.777 248.77C249.955 250.047 245.794 254.011 245.715 255.323C245.635 256.636 247.611 257.663 253.617 259.43C259.624 261.197 262.733 262.847 262.212 264.742C261.69 266.637 245.022 267.413 242.948 267.424C239.285 267.442 234.737 266.744 233.709 266.887Z" fill="#E0BBA5"/>
<path d="M171.614 171.565C171.095 167.838 169.756 163.908 169.152 162.408C166.402 165.404 160.458 172.976 158.679 179.304C156.455 187.213 145.918 268.479 151.828 271.694C157.738 274.909 175.226 277.699 188.999 277.682C200.017 277.668 216.491 273.854 224.852 270.79L225.306 255.29C214.899 253.889 205.629 253.837 192.459 249.65C181.028 246.017 176.749 242.575 174.632 239.307C173.202 237.1 171.503 230.48 171.379 227.885C171.255 225.29 172.262 176.225 171.614 171.565Z" fill="#CA2F42"/>
<path d="M172.424 158.627L158.351 149.661L122.047 264.201C130.393 268.423 147.57 276.941 149.512 277.24C151.939 277.615 152.668 273.849 153.529 270.269C155.184 263.388 157.101 248.159 157.402 238.38C157.703 228.601 160.806 198.006 161.904 188.829C162.782 181.487 169.283 165.635 172.424 158.627Z" fill="white"/>
<path d="M58.5761 296.377L59.37 255.828L122.962 269.062C119.138 280.836 110.374 307.959 105.905 322.261C101.437 336.563 94.7648 361.162 87.3748 378.023L58.5761 296.377Z" fill="#3C4488"/>
<path d="M74.3835 169.188C54.5746 182.988 34.3326 202.577 27.2712 208.152L37.1643 235.935L80.0271 209.727L79.7661 210.053C73.451 217.948 62.5427 231.584 58.7875 237.827C56.5665 241.519 51.3439 251.83 50.868 254.667L114.489 284.966C118.532 279.891 127.068 268.87 128.863 265.39C131.108 261.04 132.149 258.283 140.277 236.489C146.78 219.054 155.571 170.632 159.154 148.6L150.952 144.279C141.366 145.93 119.828 149.989 110.369 153.016C98.5461 156.8 83.2389 163.019 74.3835 169.188Z" fill="url(#paint1_linear)"/>
<path d="M169.81 136.429C172.632 137.936 175.31 137.564 176.767 135.223C177.737 133.663 177.056 130.48 177.755 128.673C178.453 126.866 179.441 123.797 184.16 123.506C187.222 123.318 188.671 127.47 188.628 130.009C190.822 130.416 196.032 131.612 199.036 131.41C202.33 131.189 206.692 130.107 208.323 129.88C208.942 130.348 209.952 132.028 212.375 131.691C214.471 131.399 216.406 129.942 216.353 126.15C216.3 122.357 211.102 114.996 209.845 113.518C207.857 111.183 195.881 101.925 194.884 101.589C193.887 101.252 190.366 99.8426 185.907 100.226C181.448 100.609 179.384 101.134 172.544 106.599C165.705 112.063 164.186 118.212 164.207 121.772C164.227 125.331 166.987 134.922 169.81 136.429Z" fill="#191A45"/>
<path d="M196.249 101.161C195.954 101.772 196.653 102.926 197.04 103.426L194.282 102.385C194.077 100.909 193.261 97.7773 192.442 95.9913C191.419 93.7587 180.667 86.4682 174.052 85.0141C168.092 83.7039 160.297 80.0415 154.535 72.7688C153.094 70.9506 149.911 63.4376 148.46 59.8396C147.009 56.2417 139.294 55.4157 132.712 54.1946C126.129 52.9734 113.738 51.0778 100.213 44.2315C80 34 64.3512 3.83979 63.5 0L138 1.84248e-07C138.229 1.07644 138 12.5 141.622 27.7794C142.773 32.6349 149.127 40.747 156.196 45.4628C163.265 50.1787 176.882 50.4153 189.907 60.7196C201.65 70.0097 201.479 80.7209 201.791 86.3773C202.104 92.0338 196.618 100.397 196.249 101.161Z" fill="#191A45"/>
<path d="M41.6043 164.825C41.4664 165.049 41.4159 165.351 41.4927 165.546C41.5696 165.742 41.6761 165.869 41.8612 165.909C41.9973 165.969 42.2121 165.941 42.4076 165.864C42.4565 165.845 42.5542 165.806 42.6328 165.719C42.858 165.574 43.064 165.38 43.2018 165.157L42.6062 163.641C42.0861 164.185 41.723 164.553 41.6043 164.825Z" fill="white"/>
<path d="M59.2926 150.818C59.0516 150.349 58.732 149.967 58.4997 149.663C58.2186 149.378 57.9567 149.143 57.6651 148.975C57.3735 148.808 57.1203 148.738 56.7502 148.658C56.3801 148.577 55.9314 148.584 55.3849 148.63C54.4579 148.712 53.276 149.007 51.6838 149.407C50.4531 149.722 49.0949 150.143 47.6389 150.602C46.0363 151.119 42.5169 152.503 40.6105 153.252C38.6064 154.04 35.0573 155.491 33.5613 156.136C32.1333 156.81 30.8519 157.427 29.7853 158.015C28.3469 158.806 27.3291 159.376 26.5453 159.966C26.1142 160.305 25.8296 160.586 25.5643 160.916C25.3287 161.178 25.21 161.45 25.1106 161.771C25.0111 162.093 24.9309 162.463 24.9676 162.843C24.9554 163.243 25.0306 163.721 25.1739 164.229C25.4499 165.362 26.0351 166.995 26.6115 168.461C27.1687 169.879 27.8219 171.541 28.4401 172.539C28.6812 173.009 29.0007 173.391 29.233 173.695C29.5141 173.979 29.776 174.215 30.0676 174.382C30.3592 174.55 30.6124 174.62 30.9825 174.7C31.3527 174.78 31.8013 174.773 32.3478 174.728C33.2748 174.646 34.4567 174.35 36.0489 173.95C37.2308 173.655 38.589 173.234 40.0938 172.755C41.6476 172.257 45.2647 170.836 47.22 170.067C49.1752 169.299 52.6754 167.866 54.1715 167.222C54.7388 166.942 55.2765 166.731 55.795 166.471L56.3623 166.191L56.9664 166.292L61.4586 166.953L60.8822 165.487L60.3635 164.167L61.4615 163.228C61.7949 162.927 62.0794 162.646 62.2662 162.403C62.4529 162.161 62.5716 161.888 62.6414 161.635C62.7408 161.314 62.8211 160.944 62.7843 160.563C62.7965 160.163 62.7213 159.685 62.5781 159.177C62.302 158.044 61.7168 156.412 61.1404 154.945C60.4959 153.449 59.8619 151.836 59.2926 150.818ZM29.6149 162.032C30.1037 161.84 30.6974 162.058 30.9087 162.596C31.1009 163.085 30.8827 163.678 30.345 163.89C29.8074 164.101 29.2626 163.864 29.0513 163.326C28.8591 162.837 29.1261 162.224 29.6149 162.032ZM33.7139 169.733C33.906 170.221 33.6879 170.815 33.1502 171.026C32.6614 171.218 32.0678 171 31.8564 170.463L30.1272 166.063C29.9351 165.575 30.1532 164.981 30.6909 164.77C31.1797 164.577 31.7733 164.796 31.9847 165.333L33.7139 169.733ZM37.6574 167.562C37.804 167.504 37.8826 167.417 37.9611 167.329C38.0205 167.193 38.1479 167.087 38.2945 167.029C38.6856 166.875 39.0941 167.053 39.2478 167.444C39.3439 167.689 39.2934 167.991 39.1363 168.166C38.7627 168.651 38.2827 169.009 37.6961 169.24C37.1584 169.451 36.5928 169.447 36.0969 169.191C35.5521 168.954 35.1645 168.542 34.9723 168.053L33.8772 165.267L33.7794 165.305C33.3884 165.459 32.9798 165.281 32.8261 164.89C32.7685 164.743 32.7597 164.577 32.819 164.441L33.379 162.133C33.4488 161.88 33.6059 161.705 33.8503 161.609C34.2414 161.455 34.6499 161.633 34.8036 162.024L35.2456 163.149L36.6142 162.611C37.0053 162.457 37.4138 162.635 37.5675 163.026C37.7212 163.417 37.5432 163.826 37.1522 163.979L35.7835 164.517L36.8211 167.157C36.9555 167.499 37.3152 167.696 37.6574 167.562ZM45.6252 166.01L44.6965 166.375C44.501 166.452 44.2862 166.48 44.1012 166.44C43.9161 166.4 43.7118 166.311 43.6053 166.183C43.3383 166.796 42.8478 167.271 42.2123 167.521C41.2836 167.886 40.2622 167.441 39.8971 166.512C39.6666 165.925 39.7782 165.204 40.2006 164.7C40.4362 164.438 40.9756 163.944 41.4365 163.537C41.8973 163.13 42.2796 162.81 42.3285 162.791L42.0979 162.205C41.9442 161.814 41.5356 161.636 41.1446 161.789C40.9002 161.885 40.7134 162.128 40.6925 162.362C40.682 162.479 40.7013 162.528 40.6908 162.645C40.6996 162.811 40.6594 162.996 40.5512 163.151C40.4622 163.355 40.2859 163.481 40.0904 163.558C39.6016 163.75 39.0568 163.513 38.8647 163.024C38.7686 162.78 38.7407 162.565 38.8297 162.361C38.9187 162.156 39.0077 161.952 39.2136 161.758C39.4493 161.496 39.9293 161.138 40.7603 160.812C41.5424 160.504 42.1866 160.42 42.6929 160.56C43.3355 160.759 43.8488 161.347 44.2139 162.276L45.0593 164.427C45.1169 164.573 45.2723 164.681 45.4382 164.673C45.6721 164.694 45.8956 164.831 45.9917 165.076C46.1157 165.535 45.9674 165.875 45.6252 166.01ZM48.5736 163.892C48.7657 164.381 48.5476 164.974 48.0099 165.185C47.5211 165.378 46.9275 165.159 46.7161 164.622L43.911 157.485C43.7189 156.996 43.937 156.403 44.4747 156.191C44.9635 155.999 45.5571 156.217 45.7684 156.755L48.5736 163.892ZM55.1465 162.38C54.8532 162.496 54.5512 162.445 54.2788 162.326L50.9543 160.473L51.8189 162.672C52.0111 163.161 51.793 163.755 51.2553 163.966C50.7665 164.158 50.1728 163.94 49.9615 163.403L47.1563 156.266C46.9642 155.777 47.1823 155.184 47.72 154.972C48.2088 154.78 48.8024 154.998 49.0138 155.536L50.9543 160.473L52.1269 156.852C52.2264 156.53 52.4323 156.337 52.7256 156.221C53.2144 156.029 53.8081 156.247 54.0194 156.785C54.0963 156.981 54.1242 157.195 54.0544 157.448L53.3687 159.58L55.3225 160.675C55.5268 160.764 55.6718 160.989 55.7486 161.184C55.9215 161.624 55.6353 162.188 55.1465 162.38ZM54.4952 152.253C54.984 152.061 55.5776 152.279 55.789 152.816C55.9811 153.305 55.763 153.899 55.2253 154.11C54.6876 154.321 54.1429 154.084 53.9315 153.546C53.7883 153.038 54.0064 152.445 54.4952 152.253ZM58.5941 159.953C58.7863 160.442 58.5682 161.035 58.0305 161.247C57.5417 161.439 56.948 161.221 56.7367 160.683L55.0075 156.284C54.8153 155.795 55.0335 155.201 55.5711 154.99C56.06 154.798 56.6536 155.016 56.8649 155.554L58.5941 159.953Z" fill="white"/>
<defs>
<filter id="filter0_i" x="2.65442" y="90.8248" width="243.082" height="336.041" filterUnits="userSpaceOnUse" color-interpolation-filters="sRGB">
<feFlood flood-opacity="0" result="BackgroundImageFix"/>
<feBlend mode="normal" in="SourceGraphic" in2="BackgroundImageFix" result="shape"/>
<feColorMatrix in="SourceAlpha" type="matrix" values="0 0 0 0 0 0 0 0 0 0 0 0 0 0 0 0 0 0 127 0" result="hardAlpha"/>
<feOffset dy="8"/>
<feGaussianBlur stdDeviation="4"/>
<feComposite in2="hardAlpha" operator="arithmetic" k2="-1" k3="1"/>
<feColorMatrix type="matrix" values="0 0 0 0 0 0 0 0 0 0 0 0 0 0 0 0 0 0 0.08 0"/>
<feBlend mode="normal" in2="shape" result="effect1_innerShadow"/>
</filter>
<filter id="filter1_d" x="36.0027" y="100.868" width="81.8116" height="39.1841" filterUnits="userSpaceOnUse" color-interpolation-filters="sRGB">
<feFlood flood-opacity="0" result="BackgroundImageFix"/>
<feColorMatrix in="SourceAlpha" type="matrix" values="0 0 0 0 0 0 0 0 0 0 0 0 0 0 0 0 0 0 127 0"/>
<feOffset dy="2"/>
<feGaussianBlur stdDeviation="1"/>
<feColorMatrix type="matrix" values="0 0 0 0 0 0 0 0 0 0 0 0 0 0 0 0 0 0 0.08 0"/>
<feBlend mode="normal" in2="BackgroundImageFix" result="effect1_dropShadow"/>
<feBlend mode="normal" in="SourceGraphic" in2="effect1_dropShadow" result="shape"/>
</filter>
<linearGradient id="paint0_linear" x1="-52.5831" y1="78.3107" x2="224.038" y2="553.67" gradientUnits="userSpaceOnUse">
<stop stop-color="#4D4BA2"/>
<stop offset="1" stop-color="#6D81DC"/>
</linearGradient>
<linearGradient id="paint1_linear" x1="226.021" y1="269.28" x2="50.1728" y2="293.913" gradientUnits="userSpaceOnUse">
<stop stop-color="#FF5C7F"/>
<stop offset="1" stop-color="#FF4338"/>
</linearGradient>
</defs>
</svg>