<svg width="16" height="16" viewBox="0 0 16 16" fill="none" xmlns="http://www.w3.org/2000/svg">
<path d="M2.8128 2.14666C2.63221 2.14666 2.47573 2.21332 2.344 2.34442C2.21163 2.47562 2.14581 2.63338 2.14581 2.81332C2.14581 2.99786 2.21163 3.15551 2.344 3.28671L3.28629 4.2289C3.41429 4.35775 3.57045 4.42218 3.75499 4.42218C3.94645 4.42218 4.10453 4.35775 4.23157 4.23338C4.35851 4.10666 4.42144 3.94666 4.42144 3.75551C4.42144 3.57108 4.35765 3.41556 4.22912 3.28671L3.28693 2.34442C3.15445 2.21332 2.99691 2.14666 2.8128 2.14666ZM2.00021 7.33332H0.666881C0.482881 7.33332 0.325548 7.39775 0.195735 7.52884C0.0648546 7.66004 0 7.81556 0 7.99999C0 8.18452 0.0648546 8.34218 0.195735 8.47114C0.325548 8.60223 0.482881 8.66666 0.666881 8.66666H2.00021C2.18421 8.66666 2.34112 8.60223 2.472 8.47114C2.60181 8.34218 2.66741 8.18442 2.66741 7.99999C2.66741 7.81546 2.60181 7.65994 2.472 7.52884C2.34112 7.39775 2.18421 7.33332 2.00021 7.33332ZM8 -9.57725e-06C7.816 -9.57725e-06 7.65931 0.0666571 7.52853 0.19551C7.39861 0.32671 7.33312 0.48447 7.33312 0.666657V1.99999C7.33312 2.18452 7.39861 2.34218 7.52843 2.47114C7.65931 2.60223 7.816 2.6689 8 2.6689C8.18421 2.6689 8.34091 2.60223 8.47179 2.47114C8.6016 2.34218 8.66709 2.18442 8.66709 1.99999V0.666657C8.66709 0.48447 8.6016 0.326604 8.47179 0.19551C8.3408 0.0666571 8.18421 -9.57725e-06 8 -9.57725e-06ZM13.1822 2.14666C13.0017 2.14666 12.8453 2.21332 12.7131 2.34442L11.7709 3.28671C11.6384 3.4178 11.573 3.57556 11.573 3.75551C11.573 3.94004 11.638 4.0978 11.7684 4.22666C11.8986 4.35786 12.0555 4.42218 12.2399 4.42218C12.4275 4.42218 12.5857 4.35775 12.7135 4.23114L13.656 3.28884C13.7849 3.15999 13.8486 3.00223 13.8486 2.81332C13.8486 2.62879 13.7838 2.47327 13.6529 2.34218C13.5231 2.21332 13.3666 2.14666 13.1822 2.14666ZM3.75499 11.5733C3.57451 11.5733 3.41824 11.6378 3.28629 11.7711L2.344 12.7134C2.21163 12.8467 2.14581 13.0022 2.14581 13.1867C2.14581 13.3667 2.21163 13.5245 2.344 13.6556C2.47584 13.7889 2.63221 13.8533 2.81269 13.8533C2.99669 13.8533 3.15445 13.7889 3.28693 13.6556L4.22912 12.7134C4.35765 12.5867 4.42144 12.4289 4.42144 12.2445C4.42144 12.0599 4.35648 11.9022 4.22603 11.7711C4.09589 11.64 3.93888 11.5733 3.75499 11.5733ZM7.99989 5.33332C8.73611 5.33332 9.36395 5.59338 9.88544 6.11551C10.4062 6.63551 10.6668 7.26442 10.6668 7.99999C10.6668 8.73556 10.4062 9.36447 9.88544 9.88671C9.36384 10.4065 8.73611 10.6667 8 10.6667C7.26379 10.6667 6.63573 10.4066 6.11413 9.8866C5.59392 9.36458 5.33333 8.73567 5.33333 7.99999C5.33333 7.26442 5.59392 6.63551 6.11413 6.11551C6.63573 5.59338 7.26368 5.33332 7.99989 5.33332ZM15.3331 7.33332H13.9998C13.8156 7.33332 13.6589 7.39775 13.528 7.52884C13.3982 7.66004 13.3326 7.81556 13.3326 7.99999C13.3326 8.18452 13.3982 8.34218 13.528 8.47114C13.6589 8.60223 13.8156 8.66666 13.9998 8.66666H15.3331C15.5171 8.66666 15.6742 8.60223 15.8043 8.47114C15.9351 8.34218 16 8.18442 16 7.99999C16 7.81546 15.9351 7.65994 15.8043 7.52884C15.6741 7.39775 15.5171 7.33332 15.3331 7.33332ZM7.99989 13.3333C7.81589 13.3333 7.6592 13.3978 7.52843 13.5288C7.39851 13.66 7.33301 13.8156 7.33301 14V15.3333C7.33301 15.5179 7.39851 15.6755 7.52832 15.8045C7.6592 15.9356 7.81589 16 8 16C8.18421 16 8.34091 15.9356 8.47179 15.8045C8.6016 15.6755 8.66709 15.5178 8.66709 15.3333V14C8.66709 13.8155 8.6016 13.6599 8.47179 13.5288C8.34091 13.3978 8.18411 13.3333 7.99989 13.3333ZM12.239 11.5733C12.0556 11.5733 11.8981 11.6378 11.7677 11.7711C11.6375 11.9023 11.5719 12.06 11.5719 12.2445C11.5719 12.4267 11.6384 12.5822 11.7703 12.7133L12.7126 13.6556C12.8444 13.7889 13.0006 13.8533 13.1813 13.8533C13.3658 13.8533 13.5231 13.7889 13.6528 13.6599C13.7838 13.5288 13.8486 13.3711 13.8486 13.1867C13.8486 13 13.7849 12.8421 13.656 12.7133L12.7135 11.7711C12.5818 11.6378 12.4226 11.5733 12.239 11.5733ZM8 3.99999C7.27445 3.99999 6.60512 4.18004 5.99243 4.53546C5.37909 4.89556 4.89376 5.37994 4.53685 5.99327C4.17931 6.60447 4.00032 7.27327 4.00032 7.99999C4.00032 8.72671 4.17888 9.39551 4.53685 10.0088C4.89461 10.62 5.38016 11.1044 5.99243 11.4644C6.60437 11.8222 7.27349 12 8 12C8.7264 12 9.39531 11.8222 10.0078 11.4645C10.6201 11.1044 11.1052 10.6199 11.4634 10.0088C11.8211 9.39551 11.9999 8.72671 11.9999 7.99999C11.9999 7.27327 11.8205 6.60447 11.4634 5.99327C11.1062 5.37994 10.6211 4.89556 10.0078 4.53556C9.39477 4.17994 8.72555 3.99999 8 3.99999Z" fill="#D9D9D9"/>
</svg>