<svg width="16" height="16" viewBox="0 0 16 16" fill="none" xmlns="http://www.w3.org/2000/svg">
<path d="M8.19122 2.27271C11.2774 2.36816 13.7273 4.91361 13.7273 7.99998C13.7273 11.15 11.1502 13.7273 8.00032 13.7273C5.61407 13.7273 3.5778 12.2636 2.71875 10.2273H2.90965C6.0595 10.2273 8.63665 7.64998 8.63665 4.49998C8.63665 3.70452 8.47757 2.97271 8.19122 2.27271Z" stroke="#D9D9D9" stroke-linejoin="round"/>
<path d="M4.91876 3.79819L4.1578 4.57259L4.3375 5.66724C4.34624 5.71964 4.34074 5.77356 4.3216 5.82285C4.30247 5.87215 4.27048 5.91486 4.22926 5.94612C4.18804 5.97738 4.13925 5.99595 4.08843 5.99971C4.03761 6.00346 3.9868 5.99226 3.94178 5.96738L2.9999 5.45009L2.05924 5.96636C2.01421 5.99107 1.96346 6.00213 1.91272 5.9983C1.86199 5.99446 1.81329 5.97587 1.77214 5.94465C1.73099 5.91342 1.69904 5.87079 1.67988 5.82159C1.66073 5.77238 1.65515 5.71857 1.66376 5.66622L1.84322 4.57158L1.08225 3.79819C1.04585 3.76109 1.0201 3.71409 1.00793 3.66252C0.995752 3.61094 0.997633 3.55684 1.01336 3.50632C1.02908 3.4558 1.05802 3.41087 1.09691 3.37662C1.13579 3.34237 1.18308 3.32015 1.23342 3.31248L2.28551 3.15312L2.75535 2.15902C2.77764 2.11136 2.81232 2.07121 2.85544 2.04316C2.89856 2.01512 2.94837 2.00031 2.99917 2.00043C3.04997 2.00031 3.09978 2.01512 3.14289 2.04316C3.18601 2.07121 3.2207 2.11136 3.24299 2.15902L3.71332 3.15413L4.76491 3.3135C4.81528 3.32088 4.86266 3.34282 4.90172 3.37683C4.94078 3.41084 4.96996 3.45557 4.98596 3.50598C5.00196 3.55638 5.00414 3.61046 4.99227 3.66209C4.9804 3.71372 4.95494 3.76087 4.91876 3.79819Z" fill="#D9D9D9"/>
</svg>