<svg width="88" height="88" viewBox="0 0 88 88" fill="none" xmlns="http://www.w3.org/2000/svg">
<path d="M26.3911 12.6155C26.3911 11.5109 27.2865 10.6155 28.3911 10.6155H50.2172C51.3218 10.6155 52.2172 11.5109 52.2172 12.6155V26.5001C52.2172 27.6047 51.3218 28.5001 50.2172 28.5001H37.5433L34.6085 32.077L33.4346 28.5001H28.3911C27.2865 28.5001 26.3911 27.6047 26.3911 26.5001V12.6155Z" fill="#FFCCC9"/>
<path d="M43.0864 19.7556C43.7476 19.7556 44.2836 19.2186 44.2836 18.556C44.2836 17.8935 43.7476 17.3564 43.0864 17.3564C42.4252 17.3564 41.8892 17.8935 41.8892 18.556C41.8892 19.2186 42.4252 19.7556 43.0864 19.7556Z" fill="#5254AB"/>
<path d="M38.5493 19.7556C39.2104 19.7556 39.7465 19.2186 39.7465 18.556C39.7465 17.8935 39.2104 17.3564 38.5493 17.3564C37.8881 17.3564 37.3521 17.8935 37.3521 18.556C37.3521 19.2186 37.8881 19.7556 38.5493 19.7556Z" fill="#5254AB"/>
<path d="M36.0916 21.0183L35.1465 21.9654C36.6587 23.4806 38.6751 24.3645 40.8804 24.3645C43.0228 24.3645 45.0391 23.5438 46.6144 21.9654L45.6692 21.0183C43.0228 23.6069 38.7381 23.6069 36.0916 21.0183Z" fill="#5254AB"/>
<path d="M61.6112 16.6619H53.5458V14.9572C53.5458 13.8839 52.7267 13 51.7185 13H30.673C29.6648 13 28.8457 13.8208 28.8457 14.9572V27.0794C28.8457 28.1528 29.6648 29.0367 30.673 29.0367H32.8154L33.7605 34.2139L38.7384 29.163V30.8676C38.7384 31.941 39.5575 32.8249 40.5657 32.8249H53.6088L58.5867 38.0021L59.5318 32.8249H61.6742C62.6824 32.8249 63.5015 32.0041 63.5015 30.8676V18.6192C63.4385 17.4827 62.5563 16.6619 61.6112 16.6619ZM34.7057 30.7414L34.0756 27.2057H30.673C30.547 27.2057 30.421 27.0794 30.421 27.0163V14.9572C30.421 14.8941 30.547 14.7678 30.673 14.7678H51.7185C51.8445 14.7678 51.9706 14.8941 51.9706 14.9572V27.0794C51.9706 27.1426 51.8445 27.2689 51.7185 27.2689H38.1713L34.7057 30.7414ZM61.8632 30.7414C61.8632 30.8045 61.7372 30.9308 61.6112 30.9308H58.2086L57.5785 34.4664L54.1129 30.9308H40.5657C40.4396 30.9308 40.3136 30.8045 40.3136 30.7414V29.0367H51.7815C52.7897 29.0367 53.6088 28.2159 53.6088 27.0794V18.4297H61.6112C61.7372 18.4297 61.8632 18.556 61.8632 18.6192V30.7414Z" fill="#5254AB"/>
<path d="M17 67.3605V75H50.8367V67.3605C50.8367 62.7516 47.2451 59.1528 42.6453 59.1528H25.2544C20.7806 59.1528 17 62.8147 17 67.3605Z" fill="url(#paint0_linear)"/>
<path d="M33.8867 55.7434C39.1166 55.7434 43.3383 51.5133 43.3383 46.273C43.3383 41.0326 39.1166 36.8025 33.8867 36.8025C28.6568 36.8025 24.4351 41.0326 24.4351 46.273C24.5612 51.5133 28.7198 55.7434 33.8867 55.7434Z" fill="url(#paint1_linear)"/>
<path d="M56.9484 56.1854C61.2961 56.1854 64.7617 52.6497 64.7617 48.3564C64.7617 44.0632 61.2331 40.5275 56.9484 40.5275C52.6007 40.5275 49.1351 44.0632 49.1351 48.3564C49.1351 52.6497 52.6637 56.1854 56.9484 56.1854Z" fill="url(#paint2_linear)"/>
<path d="M64.1319 59.0266H50.7106C52.979 60.9838 54.3652 63.825 54.3652 66.9818L54.7433 74.937H71V65.8453C71 62.0571 68.0385 59.0266 64.1319 59.0266Z" fill="url(#paint3_linear)"/>
<defs>
<linearGradient id="paint0_linear" x1="-17.0435" y1="27.9039" x2="77.4366" y2="73.8337" gradientUnits="userSpaceOnUse">
<stop stop-color="#4D4BA2"/>
<stop offset="1" stop-color="#6473CC"/>
</linearGradient>
<linearGradient id="paint1_linear" x1="-17.0435" y1="27.9039" x2="77.4366" y2="73.8337" gradientUnits="userSpaceOnUse">
<stop stop-color="#4D4BA2"/>
<stop offset="1" stop-color="#6473CC"/>
</linearGradient>
<linearGradient id="paint2_linear" x1="-17.0435" y1="27.9039" x2="77.4366" y2="73.8337" gradientUnits="userSpaceOnUse">
<stop stop-color="#4D4BA2"/>
<stop offset="1" stop-color="#6473CC"/>
</linearGradient>
<linearGradient id="paint3_linear" x1="-17.0435" y1="27.9039" x2="77.4366" y2="73.8337" gradientUnits="userSpaceOnUse">
<stop stop-color="#4D4BA2"/>
<stop offset="1" stop-color="#6473CC"/>
</linearGradient>
</defs>
</svg>