<svg width="88" height="88" viewBox="0 0 88 88" fill="none" xmlns="http://www.w3.org/2000/svg">
<circle cx="42.1183" cy="27.1061" r="16.2447" fill="#FFCCC9"/>
<path d="M45.4764 44.6498C53.7177 44.6498 60.4216 37.9454 60.4216 29.705C60.4216 21.4647 53.7177 14.7595 45.4764 14.7595C37.2351 14.7595 30.5312 21.464 30.5312 29.7043C30.5312 37.9447 37.2351 44.6498 45.4764 44.6498ZM45.4764 16.8918C52.5414 16.8918 58.2893 22.6395 58.2893 29.7043C58.2893 36.7691 52.5414 42.5176 45.4764 42.5176C38.4114 42.5176 32.6635 36.7698 32.6635 29.705C32.6635 22.6402 38.4114 16.8918 45.4764 16.8918Z" fill="#5254AB"/>
<path d="M45.4025 34.7141C44.0492 34.7141 42.9477 33.6092 42.9477 32.2503H40.9277C40.9277 34.4302 42.4837 36.2507 44.5394 36.6554V38.1528H46.5593V36.5831C48.4668 36.0696 49.8767 34.3242 49.8767 32.2503C49.8767 29.8089 47.743 29.2515 46.1842 28.8447L45.2753 28.6041C43.4621 28.1304 43.0951 27.8872 43.0951 27.1608C43.0951 25.8026 44.196 24.6971 45.55 24.6971C46.904 24.6971 48.0049 25.8019 48.0049 27.1608H50.0248C50.0248 25.0336 48.5422 23.251 46.5599 22.7902V21.2583H44.54V22.7902C42.5585 23.2517 41.0752 25.0336 41.0752 27.1608C41.0752 29.6015 43.2089 30.159 44.7663 30.5658L45.6759 30.8063C47.4898 31.28 47.8567 31.5233 47.8567 32.2497C47.8574 33.6092 46.7566 34.7141 45.4025 34.7141Z" fill="#5254AB"/>
<path d="M26.692 71.9403C26.692 71.2225 27.2738 70.6407 27.9915 70.6407H37.0886C37.8063 70.6407 38.3882 71.2225 38.3882 71.9403V75.839C38.3882 76.5567 37.8063 77.1386 37.0886 77.1386H27.9915C27.2738 77.1386 26.692 76.5567 26.692 75.839V71.9403Z" fill="url(#paint0_linear)"/>
<path d="M18.8944 58.2947C19.4362 61.5436 27.9915 70.6407 27.9915 70.6407H37.0886C37.0886 70.6407 39.0379 62.1934 38.3881 60.2441C37.4176 57.3325 29.291 50.4972 29.291 50.4972C28.6413 50.064 27.7316 49.3276 26.6919 49.8474C25.6522 50.3673 25.3923 51.147 26.0421 52.4466L31.2404 59.5943C31.2404 59.5943 33.4064 62.8432 31.2404 60.2441C29.0744 57.6449 24.7425 52.6 24.7425 51.147C24.7425 49.8474 25.6089 49.1976 26.0421 49.1976C26.0421 49.1976 25.3923 35.5521 24.7425 34.2525C24.0927 32.9529 23.9142 31.6533 21.4936 31.6533C19.5442 31.6533 18.8944 34.0359 18.8944 34.9023C18.8944 34.9023 18.2443 54.396 18.8944 58.2947Z" fill="url(#paint1_linear)"/>
<path d="M61.9135 71.9403C61.9135 71.2225 61.3317 70.6407 60.6139 70.6407H51.5169C50.7991 70.6407 50.2173 71.2225 50.2173 71.9403V75.839C50.2173 76.5567 50.7991 77.1386 51.5169 77.1386H60.6139C61.3317 77.1386 61.9135 76.5567 61.9135 75.839V71.9403Z" fill="url(#paint2_linear)"/>
<path d="M69.7111 58.2947C69.1693 61.5436 60.6139 70.6407 60.6139 70.6407H51.5169C51.5169 70.6407 49.5676 62.1934 50.2174 60.2441C51.1879 57.3325 59.3144 50.4972 59.3144 50.4972C59.9642 50.064 60.8739 49.3276 61.9136 49.8474C62.9532 50.3673 63.2132 51.147 62.5634 52.4466L57.3651 59.5943C57.3651 59.5943 55.1991 62.8432 57.3651 60.2441C59.531 57.6449 63.8629 52.6 63.8629 51.147C63.8629 49.8474 62.9966 49.1976 62.5634 49.1976C62.5634 49.1976 63.2132 35.5521 63.8629 34.2525C64.5127 32.9529 64.6913 31.6533 67.1119 31.6533C69.0613 31.6533 69.7111 34.0359 69.7111 34.9023C69.7111 34.9023 70.3612 54.396 69.7111 58.2947Z" fill="url(#paint3_linear)"/>
<defs>
<linearGradient id="paint0_linear" x1="9.79746" y1="25.1554" x2="38.3882" y2="80.3875" gradientUnits="userSpaceOnUse">
<stop stop-color="#4D4BA2"/>
<stop offset="1" stop-color="#6270C9"/>
</linearGradient>
<linearGradient id="paint1_linear" x1="9.79746" y1="25.1554" x2="38.3882" y2="80.3875" gradientUnits="userSpaceOnUse">
<stop stop-color="#4D4BA2"/>
<stop offset="1" stop-color="#6270C9"/>
</linearGradient>
<linearGradient id="paint2_linear" x1="78.808" y1="25.1554" x2="50.2173" y2="80.3875" gradientUnits="userSpaceOnUse">
<stop stop-color="#4D4BA2"/>
<stop offset="1" stop-color="#6270C9"/>
</linearGradient>
<linearGradient id="paint3_linear" x1="78.808" y1="25.1554" x2="50.2173" y2="80.3875" gradientUnits="userSpaceOnUse">
<stop stop-color="#4D4BA2"/>
<stop offset="1" stop-color="#6270C9"/>
</linearGradient>
</defs>
</svg>