<svg width="88" height="88" viewBox="0 0 88 88" fill="none" xmlns="http://www.w3.org/2000/svg">
<ellipse cx="62.1323" cy="70.1069" rx="10.8677" ry="10.8677" fill="#FFCCC9"/>
<path fill-rule="evenodd" clip-rule="evenodd" d="M31.5052 39.481H55.2165C60.6638 39.481 65.0962 43.9133 65.0962 49.3607V57.9386C63.8601 57.5017 62.5299 57.264 61.1441 57.264C54.9877 57.264 49.9272 61.9565 49.3444 67.96H33.4561H25.5774C23.3988 67.96 21.6255 66.1877 21.6255 64.0082V61.2163V49.3607C21.6255 43.9133 26.0578 39.481 31.5052 39.481ZM33.4811 55.2885H53.2405C53.5299 55.2885 53.8 55.2194 54.0476 55.1078C54.7344 54.7981 55.2165 54.1147 55.2165 53.3125C55.2165 52.2213 54.3327 51.3366 53.2405 51.3366H33.4811C32.6787 51.3366 31.9958 51.8189 31.6862 52.5052C31.5745 52.753 31.5052 53.0231 31.5052 53.3125C31.5052 54.4038 32.389 55.2885 33.4811 55.2885ZM54.0476 49.18C54.7344 48.8703 55.2165 48.1868 55.2165 47.3847C55.2165 46.2935 54.3327 45.4088 53.2405 45.4088H33.4811C32.6787 45.4088 31.9958 45.8911 31.6862 46.5774C31.5745 46.8251 31.5052 47.0953 31.5052 47.3847C31.5052 48.4759 32.389 49.3607 33.4811 49.3607H53.2405C53.5299 49.3607 53.8 49.2916 54.0476 49.18ZM43.3608 61.2163C43.6502 61.2163 43.9203 61.1472 44.1679 61.0357C44.8547 60.7259 45.3368 60.0425 45.3368 59.2404C45.3368 58.1492 44.453 57.2644 43.3608 57.2644H33.4811C32.6787 57.2644 31.9958 57.7467 31.6862 58.4331C31.5745 58.6808 31.5052 58.9509 31.5052 59.2404C31.5052 60.3316 32.389 61.2163 33.4811 61.2163H43.3608Z" fill="#5B63BB"/>
<path d="M43.3605 37.5045C49.9082 37.5045 55.2162 32.1966 55.2162 25.6489C55.2162 19.1012 49.9082 13.7932 43.3605 13.7932C36.8128 13.7932 31.5049 19.1012 31.5049 25.6489C31.5049 32.1966 36.8128 37.5045 43.3605 37.5045Z" fill="#5B63BB"/>
<path d="M70.0241 69.119C70.0241 74.0231 66.0485 77.9987 61.1444 77.9987C56.2402 77.9987 52.2646 74.0231 52.2646 69.119C52.2646 64.2148 56.2402 60.2393 61.1444 60.2393C66.0485 60.2393 70.0241 64.2148 70.0241 69.119Z" stroke="#5B63BB" stroke-width="2"/>
<path d="M64.8743 67.1062C64.9614 66.9821 65.0171 66.8443 65.0539 66.7032C65.1757 66.2361 65.0323 65.7179 64.6477 65.4098C64.148 65.008 63.4394 65.1175 63.0636 65.6518L60.4503 69.3814L59.1093 67.9459C58.6672 67.4725 57.9508 67.4725 57.5086 67.9459C57.2141 68.2612 57.1342 68.7033 57.2321 69.1056C57.2811 69.3072 57.361 69.5014 57.5086 69.6595L60.6957 73.0712L64.8743 67.1062Z" fill="#5B63BB"/>
</svg>