<svg width="40" height="39" viewBox="0 0 40 39" fill="none" xmlns="http://www.w3.org/2000/svg">
<path d="M20.393 39C31.1051 39 39.789 30.3161 39.789 19.604C39.789 8.89194 31.1051 0.208069 20.393 0.208069C9.68094 0.208069 0.99707 8.89194 0.99707 19.604C0.99707 30.3161 9.68094 39 20.393 39Z" fill="#FFC90A"/>
<path d="M20.3067 33.9778C28.1973 33.9778 34.5939 27.5812 34.5939 19.6906C34.5939 11.8 28.1973 5.40339 20.3067 5.40339C12.4161 5.40339 6.01953 11.8 6.01953 19.6906C6.01953 27.5812 12.4161 33.9778 20.3067 33.9778Z" stroke="white" stroke-width="2" stroke-miterlimit="10"/>
<path d="M23.7471 25.0207L24.5232 26.8899L22.9624 27.5379L22.214 25.7354C21.462 26.0477 20.7364 26.2055 20.0372 26.2088C19.3437 26.1967 18.6366 26.0207 17.9157 25.6808L18.6829 23.6013C19.1454 23.8136 19.6123 23.9198 20.0833 23.9199C20.5601 23.9046 21.0509 23.7921 21.5557 23.5825L20.3015 20.5618L19.7792 20.7003C19.2776 20.8303 18.817 20.8846 18.3975 20.8631C17.9779 20.8417 17.4869 20.7064 16.9245 20.4572C16.3678 20.1927 15.8862 19.5709 15.4796 18.5918C15.0777 17.6238 15.0261 16.6995 15.3248 15.8189C15.6292 14.9229 16.2579 14.2118 17.211 13.6857L16.5874 12.1836L18.1481 11.5356L18.7649 13.021C19.3727 12.7686 19.9724 12.6566 20.5639 12.6849C21.1508 12.7021 21.7553 12.849 22.3773 13.1255L21.6203 15.1421C21.2668 14.9889 20.8924 14.9161 20.497 14.9237C20.0969 14.9202 19.7269 14.989 19.387 15.1302L20.5927 18.0342L21.2215 17.8905C21.7483 17.7631 22.2089 17.7088 22.6032 17.7277C22.993 17.7354 23.3795 17.8228 23.7628 17.9897C24.1416 18.1456 24.4834 18.4015 24.7882 18.7576C25.1034 19.1094 25.3741 19.5578 25.6005 20.103C26.0116 21.0933 26.0426 22.0261 25.6935 22.9016C25.3398 23.7659 24.6909 24.4722 23.7471 25.0207ZM18.2504 15.6217C17.8454 15.8681 17.5799 16.174 17.4538 16.5394C17.338 16.9005 17.3587 17.2703 17.5157 17.6486C17.5896 17.8266 17.6749 17.9738 17.7716 18.0902C17.8785 18.2023 18.0588 18.3166 18.3125 18.433C18.5718 18.5341 18.9369 18.526 19.4076 18.4088L18.2504 15.6217ZM22.7708 20.1822C22.5918 20.1 22.398 20.0696 22.1894 20.0909C21.9912 20.108 21.7592 20.1456 21.4935 20.2038L22.6853 23.0744C23.5926 22.5542 23.873 21.8769 23.5266 21.0424C23.3464 20.6085 23.0945 20.3217 22.7708 20.1822Z" fill="white"/>
</svg>